<svg xmlns="http://www.w3.org/2000/svg" width="39" height="40" viewBox="0 0 39 40">
    <defs>
        <linearGradient id="a" x1="18.064%" x2="88.089%" y1="12.242%" y2="81.477%">
            <stop offset="0%" stop-color="#FF0"/>
            <stop offset="2.587%" stop-color="#FFF300"/>
            <stop offset="13.9%" stop-color="#FFC300"/>
            <stop offset="24.65%" stop-color="#FF9D00"/>
            <stop offset="34.55%" stop-color="#FF8200"/>
            <stop offset="43.31%" stop-color="#FF7200"/>
            <stop offset="100%" stop-color="#F8562C"/>
        </linearGradient>
    </defs>
    <g fill="none" fill-rule="nonzero">
        <path fill="url(#a)" d="M19.194 39.662c5.286.984 13.066.285 13.066-8.521 0-14.14 10.972-16.266 4.864-24.809C29.721-4.015 4.757-1.71.744 13.463c-3.553 13.406 6.108 23.896 18.45 26.2z"/>
        <path fill="#FFF" d="M25.82 15.844c.746.003 1.42-.426 1.708-1.086a1.716 1.716 0 0 0-.395-1.93 1.9 1.9 0 0 0-2.01-.386c-.689.273-1.139.918-1.139 1.634 0 .974.821 1.765 1.836 1.768zm0 1.309c-1.04 0-1.88 2.355-1.88 5.27 0 2.914.84 5.262 1.88 5.262s1.872-2.355 1.872-5.262c0-2.908-.81-5.27-1.843-5.27h-.03zm-8.352 0c-3.082 0-5.16 2.334-5.16 5.27 0 2.935 2.049 5.27 5.16 5.27 3.11 0 5.116-2.335 5.116-5.27 0-2.936-2.02-5.277-5.087-5.277l-.03.007zm0 8.057c-1.416 0-2.212-1.415-2.212-2.83 0-1.414.782-2.758 2.212-2.758 1.43 0 2.211 1.35 2.211 2.758s-.774 2.822-2.182 2.822l-.03.008z"/>
    </g>
</svg>
