<svg xmlns="http://www.w3.org/2000/svg" width="33" height="36" viewBox="0 0 42 46">
    <defs>
        <linearGradient id="a" x1="50%" x2="53.25%" y1="-.086%" y2="171.324%">
            <stop offset="0%" stop-color="#EA288C"/>
            <stop offset="69.782%" stop-color="#FF6D00"/>
            <stop offset="100%" stop-color="#FF0"/>
        </linearGradient>
    </defs>
    <path fill="url(#a)" fill-rule="evenodd" d="M28.402 32.405c-.955 0-1.732-2.27-1.732-5.073 0-2.802.777-5.074 1.732-5.074s1.73 2.272 1.73 5.074c0 2.803-.775 5.073-1.73 5.073zM28.38 17.6a1.699 1.699 0 1 1-1.696 1.698c0-.936.76-1.698 1.696-1.698zm-7.694 14.802c-2.845 0-4.737-2.249-4.737-5.075 0-2.823 1.892-5.075 4.737-5.075 2.837 0 4.727 2.252 4.727 5.075 0 2.826-1.89 5.075-4.727 5.075zM25.239.026c19.035 1.47 17.489 17.447 14.637 37.308-2.193 15.275-33.246 7.492-38.303-1.5-5.059-8.993 3.191-17.166 9.096-22.215C17.787 7.533 18.22-.516 25.24.026zM20.686 24.65c-1.305 0-2.027 1.303-2.027 2.66 0 1.36.722 2.7 2.027 2.7 1.3 0 2.02-1.34 2.02-2.7 0-1.357-.72-2.66-2.02-2.66z"/>
</svg>
