<svg xmlns="http://www.w3.org/2000/svg" width="50" height="47" viewBox="0 0 50 47">
    <defs>
        <linearGradient id="a" x1="6.602%" x2="84.995%" y1="92.003%" y2="9.762%">
            <stop offset="0%" stop-color="#FF0"/>
            <stop offset="2.587%" stop-color="#FFF300"/>
            <stop offset="13.9%" stop-color="#FFC300"/>
            <stop offset="24.65%" stop-color="#FF9D00"/>
            <stop offset="34.55%" stop-color="#FF8200"/>
            <stop offset="43.31%" stop-color="#FF7200"/>
            <stop offset="50%" stop-color="#FF6C00"/>
            <stop offset="100%" stop-color="#E9278B"/>
        </linearGradient>
    </defs>
    <g fill="none" fill-rule="nonzero">
        <path fill="url(#a)" d="M49.462 13.205C45.815 3.749 29.509-2.045 17.958.67 11.332 2.23 6.238 5.167 2.77 11.202c-4.568 7.963-3.515 29.59 3.374 34.69 4.99 3.689 8.487-3.792 23.365-2.596 16.127 1.298 12.067-11.384 13.928-16.4 3.017-8.148 7.989-8.593 6.025-13.691z"/>
        <path fill="#FFF" d="M29.48 19.508c1.119 0 2.021-.89 2.021-1.993 0-1.094-.902-1.993-2.02-1.993-1.11 0-2.012.89-2.012 1.993-.01 1.104.893 1.993 2.011 1.993zm.029 1.474c-1.138 0-2.059 2.661-2.059 5.943 0 3.281.921 5.942 2.059 5.942 1.137 0 2.058-2.66 2.058-5.942-.01-3.282-.93-5.943-2.058-5.943zm-9.164-.009c-3.383 0-5.63 2.642-5.63 5.942 0 3.31 2.247 5.943 5.63 5.943 3.374 0 5.61-2.633 5.61-5.943 0-3.3-2.245-5.942-5.61-5.942zm0 9.094c-1.55 0-2.406-1.566-2.406-3.16 0-1.595.855-3.116 2.406-3.116 1.541 0 2.397 1.53 2.397 3.115 0 1.585-.856 3.161-2.397 3.161z"/>
    </g>
</svg>
