<svg xmlns="http://www.w3.org/2000/svg" width="152" height="186" viewBox="0 0 152 186">
    <defs>
        <linearGradient id="a" x1="94.768%" x2="5.232%" y1="0%" y2="100%">
            <stop offset="0%" stop-color="#FF0"/>
            <stop offset="41.941%" stop-color="#FF6D00"/>
            <stop offset="100%" stop-color="#EA288C"/>
        </linearGradient>
    </defs>
    <path fill="url(#a)" fill-rule="evenodd" d="M1296.98 0c-7.34.008-15.074 4.091-20.717 11.075-16.79 20.778-38.42 42.997-79.024 29.724-34.96-11.429-54.21 8.91-54.239 31.493v.102c.018 14.053 7.479 28.96 23.228 37.605 48.24 26.48 41.242 45.912 60.304 65.841 14.73 15.4 43.148 17.353 62.79-23.293 14.642-30.295 24.626-70.493 28.865-105.455.551-4.545.81-8.716.813-12.539v-.14C1318.982 9.989 1308.492.015 1297.025 0h-.045z" opacity=".9" transform="translate(-1143)"/>
</svg>
