<svg xmlns="http://www.w3.org/2000/svg" width="338" height="326" viewBox="0 0 338 326">
    <defs>
        <linearGradient id="a" x1="-.02%" x2="100.005%" y1="49.969%" y2="49.969%">
            <stop offset="0%" stop-color="#77D238"/>
            <stop offset="100%" stop-color="#7CD438" stop-opacity="0"/>
        </linearGradient>
        <linearGradient id="b" x1="100.066%" x2="-.06%" y1="49.975%" y2="49.975%">
            <stop offset="0%" stop-color="#73CDFD"/>
            <stop offset="100%" stop-color="#77D238"/>
        </linearGradient>
        <linearGradient id="c" x1="-18.623%" x2="118.239%" y1="59.444%" y2="40.714%">
            <stop offset="0%" stop-color="#73CDFD"/>
            <stop offset="100%" stop-color="#77D238"/>
        </linearGradient>
        <linearGradient id="d" x1="44.899%" x2="100.354%" y1="54.645%" y2="13.04%">
            <stop offset="0%" stop-color="#424242" stop-opacity="0"/>
            <stop offset="73%" stop-color="#4B4B4C" stop-opacity=".2"/>
            <stop offset="100%" stop-color="#59595B" stop-opacity=".5"/>
        </linearGradient>
    </defs>
    <g fill="none" fill-rule="evenodd">
        <g fill-rule="nonzero">
            <path fill="url(#a)" d="M2.238 198.042l81.648 45.95c1.357.82 2.984.82 4.34 0l151.362-87.522c2.984-1.641 2.984-6.017 0-7.659l-81.648-45.948a4.134 4.134 0 0 0-4.34 0L2.238 190.384c-2.984 1.641-2.984 6.017 0 7.658z" opacity=".3" transform="translate(126.391 1)"/>
            <path fill="url(#b)" stroke="#8FE5FD" stroke-width="1.365" d="M97.826 238.295V52.113c0-2.457-1.357-4.914-3.528-6.279L13.956.517c-1.357-.82-2.714-.546-3.8 0L3.913 2.974l11.4 6.279c.271 42.314 0 151.785-.272 175.808 0 3.003 1.629 5.46 4.072 7.098l71.385 40.404v9.281s-.815 2.73-2.172 3.55l6.786-3.277c1.628-.546 2.714-1.91 2.714-3.822z" transform="translate(126.391 1)"/>
            <path fill="#FFF" stroke="#8FE5FD" stroke-width="2.047" d="M126.391 8.147c.271 31.15 0 159.577 0 185.809 0 3.006 1.627 5.465 4.067 7.104l80.24 45.633c2.711 1.366 5.693-.274 5.693-3.28V57.06c0-2.46-1.355-4.919-3.524-6.285L132.084 4.595c-2.44-1.366-5.693.547-5.693 3.552z"/>
            <path fill="url(#c)" stroke="#8FE5FD" stroke-width="1.365" d="M9.391 20.933v145.863c0 2.186 1.088 4.098 2.99 5.19l64.15 36.056c1.903 1.093 4.078-.273 4.078-2.458V60.814c0-2.186-1.088-4.371-2.99-5.464l-64.15-36.876c-1.903-1.092-4.078.274-4.078 2.459z" transform="translate(126.391 1)"/>
            <path fill="#8FE5FD" d="M173.659 203.528c1.354 4.27-.271 7.472-4.063 7.472s-8.126-3.47-9.75-7.472c-1.626-4.003.27-7.472 4.062-7.472 3.792 0 8.126 3.47 9.75 7.472z" opacity=".3"/>
            <g opacity=".4">
                <path fill="#63AECB" d="M142.826 59.304v25.408c0 .82.543 1.639 1.358 2.185l54.318 31.692c1.63 1.093 3.802-.273 3.802-2.186l-.271-25.134c0-.82-.543-1.64-1.358-2.186l-54.318-31.965c-1.901-.82-3.53.273-3.53 2.186z"/>
                <path fill="#8FE5FD" stroke="#FFF" stroke-width=".5" d="M140.478 61.553v25.455c0 .821.543 1.642 1.358 2.19l54.318 31.75c1.63 1.095 3.803-.274 3.803-2.19l-.544-24.907c0-.821-.543-1.643-1.358-2.19l-54.318-32.024c-1.358-1.095-3.259 0-3.259 1.916z" opacity=".81"/>
                <path fill="#73CDFD" d="M191.284 109.54c-.27 0-.54 0-.81-.277l-43.697-26.557c-.81-.553-1.08-1.383-.54-2.213.54-.83 1.349-1.107 2.158-.553l43.698 26.556c.81.554 1.079 1.384.54 2.213-.27.554-.81.83-1.35.83zM191.247 100.101c-.276 0-.552 0-.828-.273l-15.45-9.293c-.827-.547-1.103-1.367-.552-2.187.552-.82 1.38-1.093 2.208-.547l15.45 9.293c.827.547 1.103 1.367.551 2.187-.276.547-.828.82-1.38.82z"/>
                <path fill="#63AECB" d="M142.826 96.796v25.519c0 .823.543 1.646 1.358 2.195l54.318 31.83c1.63 1.098 3.802-.274 3.802-2.195l-.543-24.97c0-.823-.543-1.646-1.358-2.195l-54.318-32.105c-1.63-.823-3.259.275-3.259 1.921z"/>
                <path fill="#8FE5FD" stroke="#FFF" stroke-width=".5" d="M140.478 98.63v25.407c0 .82.543 1.64 1.358 2.186l54.318 31.692c1.63 1.093 3.803-.273 3.803-2.186l-.272-25.135c0-.82-.543-1.639-1.358-2.185l-54.318-31.965c-1.63-.82-3.53.273-3.53 2.186z" opacity=".81"/>
                <path fill="#73CDFD" d="M192.023 137.854c-.277 0-.554 0-.831-.275l-23.263-13.998c-.83-.549-1.108-1.372-.554-2.196.554-.823 1.385-1.098 2.216-.549l23.263 13.999c.83.549 1.107 1.372.553 2.195-.276.55-.83.824-1.384.824zM191.272 146.506c-.272 0-.543 0-.815-.27l-42.11-25.069c-.814-.539-1.086-1.348-.543-2.156.544-.81 1.359-1.079 2.174-.54l42.109 25.07c.815.539 1.087 1.347.543 2.156-.271.54-.815.809-1.358.809z"/>
                <path fill="#63AECB" d="M142.826 133.895v25.462c0 .822.543 1.643 1.358 2.19l54.318 31.76c1.63 1.095 3.802-.274 3.802-2.19l-.271-25.189c0-.821-.543-1.643-1.358-2.19l-54.318-32.034c-1.901-.547-3.53.548-3.53 2.19z"/>
                <path fill="#8FE5FD" stroke="#FFF" stroke-width=".5" d="M140.478 136.254v25.463c0 .821.543 1.642 1.358 2.19l54.318 31.76c1.63 1.095 3.803-.274 3.803-2.19l-.272-25.19c0-.82-.543-1.642-1.358-2.19l-54.318-32.033c-1.63-.548-3.53.547-3.53 2.19z" opacity=".81"/>
                <path fill="#73CDFD" d="M191.279 176.393c-.27 0-.541 0-.812-.277l-32.731-20.255c-.812-.555-1.083-1.387-.541-2.22.54-.832 1.352-1.11 2.164-.555l32.732 20.255c.811.555 1.082 1.387.54 2.22-.27.555-.811.832-1.352.832zM192.023 184.258c-.277 0-.554 0-.831-.274l-23.263-13.999c-.83-.549-1.108-1.372-.554-2.195.554-.824 1.385-1.098 2.216-.55l23.263 14c.83.548 1.107 1.372.553 2.195-.276.549-.83.823-1.384.823z"/>
            </g>
            <g opacity=".4">
                <path fill="#589C28" d="M194.911 72.573c-.541 0-.812 0-1.353-.275l-9.475-5.51c-1.353-.827-1.624-2.48-1.082-3.858.812-1.378 2.436-1.653 3.79-1.102l9.474 5.51c1.353.827 1.624 2.48 1.082 3.857-.812.827-1.624 1.378-2.436 1.378zM176.911 61.562c-.541 0-.812 0-1.353-.276l-9.475-5.51c-1.353-.827-1.624-2.48-1.082-3.857.812-1.378 2.436-1.653 3.79-1.102l9.474 5.51c1.353.827 1.624 2.48 1.082 3.857-.541 1.102-1.624 1.378-2.436 1.378zM158.911 51.337c-.541 0-.812 0-1.353-.275l-9.475-5.51c-1.353-.827-1.624-2.48-1.082-3.858.812-1.378 2.436-1.653 3.79-1.102l9.474 5.51c1.353.827 1.624 2.48 1.082 3.857-.541.827-1.624 1.378-2.436 1.378z"/>
                <path fill="#90D075" d="M194.128 73.36c-.541 0-.812 0-1.353-.276l-9.474-5.51c-1.354-.827-1.624-2.48-1.083-3.858.812-1.377 2.436-1.653 3.79-1.102l9.474 5.51c1.353.827 1.624 2.48 1.083 3.858-.812 1.102-1.624 1.378-2.437 1.378zM176.128 62.348c-.541 0-.812 0-1.353-.275l-9.474-5.51c-1.354-.827-1.624-2.48-1.083-3.858.812-1.377 2.436-1.653 3.79-1.102l9.474 5.51c1.353.827 1.624 2.48 1.083 3.858-.542.826-1.624 1.377-2.437 1.377zM158.128 51.337c-.541 0-.812 0-1.353-.275l-9.474-5.51c-1.354-.827-1.624-2.48-1.083-3.858.812-1.378 2.436-1.653 3.79-1.102l9.474 5.51c1.353.827 1.624 2.48 1.083 3.857-.812.827-1.624 1.378-2.437 1.378z"/>
            </g>
            <path fill="#FFF" d="M135.783 21.933v145.863c0 2.186 1.087 4.098 2.99 5.19l64.15 36.056c1.902 1.093 4.077-.273 4.077-2.458l-67.14-187.11c-1.903-1.092-4.077.274-4.077 2.459z" opacity=".3"/>
        </g>
        <path fill="url(#d)" fill-rule="nonzero" d="M167.204 206.016c-1.57.53-7.667 3.384-11.863 3.537-4.197.153-4.69-2.016-5.99-1.698-1.302.319-8.405 7.298-28.463 16.906-20.057 9.609-35.507 11.79-36.034 10.458-.528-1.332 14.395-8.866 17.126-11.46 1.876-1.744 14.595-13.522 16.072-15.42 1.477-1.898 9.026-7.923 11.124-8.56 2.099-.636 5.264-.318 7.256-1.367a49.596 49.596 0 0 0 7.667-5.07c1.254-1.273 0-1.697-.422-1.273a19.915 19.915 0 0 1-4.091 2.641 39.074 39.074 0 0 1-8.616 1.273c-1.993-.106-2.943-1.697-3.517-1.273a15.744 15.744 0 0 0-4.619 3.278c-2.414 2.428-20.385 13.098-23.527 15.95-3.141 2.854-14.184 8.56-19.928 10.989-5.744 2.428-25.942 11.789-25.942 11.789l.176.07a71.024 71.024 0 0 0-15.063 9.008c-6.307-2.358-13.293-4.185-15.884-3.325-3.142 1.05-4.912 18.297-5.111 21.221-.188 2.57 5.216 5.093 6.447 5.636.039.08.082.16.13.235-.223.555-1.654 1.109-2.873 1.474v-.059c-6.025-.648-19.06.177-20.96 7.44-1.899 7.262 5.65 10.822 10.879 11.789 5.228.967 6.541-1.934 5.052-2.535-.328-.13-.469-.283-.48-.436 8.205.271 16.704-4.138 18.756-6.237 2.602-2.629-1.536-3.973 0-5.694 1.535-1.721 7.537-2.004 7.537-2.004s22.753 4.539 28.404 5.4c5.65.86 13.645 1.803 10.784 6.295-2.86 4.492-3.763 14.454-3.763 14.454s-2.73 3.702 0 6.66c2.732 2.96 2.908 2.5 2.955 1.18.055-.816.326-1.601.785-2.276a5.515 5.515 0 0 0 1.008-3.195c-.094-1.756-.645-3.831 3.517-10.327 4.161-6.496 10.55-12.745 4.22-15.067-4.865-1.757-21.687-5.577-30.127-7.805 12.684-6.024 26.962-15.774 29.552-18.51 3.318-1.485 15.685-7.073 27.912-12.968 14.29-6.861 32.565-23.873 33.397-23.98.832-.105 5.158-1.26 7.15-1.178 1.993.082 7.14-3.172 8.921-4.339 1.782-1.167 2.04-2.157.446-1.627zM28.675 254.045a24.05 24.05 0 0 1-.501-4.531c.142-.623 2.616.453 3.913 1.064a59.558 59.558 0 0 0-3.412 3.467z" transform="translate(-63 41.899)"/>
        <path fill="#59595B" fill-rule="nonzero" d="M98.04 162.83s4.275 29.3 1.7 47.14c-2.575 17.843-6.362 31.357-6.21 35.472a16.356 16.356 0 0 1-6.583 1.738c1.34-6.87 2.621-25.315 3.134-30.375.513-5.238-2.412-38.486-8.448-39.715-3.11-.154 0 13.833-4.486 26.945-4.486 13.113-7.585 26.414-7.06 28.519l.326.06c-3.088 1.784-5.244 2.068-6.63 1.915.396-1.644.71-2.874.955-4.422.338-2.282 2.237-20.479 3.496-29.737 1.258-9.258-2.727-39.36-1.876-46.526.85-7.165 31.681 8.986 31.681 8.986z"/>
        <path fill="#303030" fill-rule="nonzero" d="M93.478 245.7s4.118.856 5.997 1.172c1.88.316 7.053.527 5.499 1.57a19.094 19.094 0 0 1-10.127 3.808c-5.324.351-9.442 1.898-8.12-4.16a6.3 6.3 0 0 0 .151-.761c2.28-.11 4.511-.696 6.554-1.722l.046.093zM76.2 233.048c1.399.191 6.495-.346 5.44.896a14.34 14.34 0 0 1-9.291 3.895c-4.219 0-9.99 2.114-9.291-1.063.225-.992.415-1.84.604-2.605 1.41.156 3.556-.131 6.743-1.935 1.114.155 4.622.68 5.796.812z"/>
        <path fill="#E69352" fill-rule="nonzero" d="M82.565 104.07s1.313 3.564.46 4.633c4.41 3.35 13.37 7.128 13.37 7.128s-2.88-3.837-1.993-6.415c.887-2.578 4.41-1.378 5.654-5.418 1.243-4.04.794-17.572-8.13-19.627-2.685.374-5.114 1.84-6.746 4.07a10.73 10.73 0 0 0-1.947 7.81c1.06 6.927 1.347 7.735-.668 7.818z"/>
        <path fill="#FFF" fill-rule="nonzero" d="M100.404 100.092c-.538 0-3.093.213-4.415-1.462a.546.546 0 0 1 .35-.883.552.552 0 0 1 .512.202c1.065 1.362 3.632 1.038 3.654 1.027.08.368.08.749 0 1.116h-.1z"/>
        <path fill="#6A29C8" fill-rule="nonzero" d="M82.661 105.607s5.069-1.595 6.797-4.642c0 0-4.421-4-2.046-5.75 2.375-1.75 4.704 1.429 4.104 4.476a4.449 4.449 0 0 0 2.058-4.642c-.318-3.571 3.528-1.917 2.846-4.154-.682-2.238-.788-4.488.635-4.167 1.423.322 3.633-3.202-.165-5.44-3.798-2.237-11.536-3.356-17.862 4.643-6.327 7.999-.153 16.64 3.633 19.676z"/>
        <path fill="#589C28" fill-rule="nonzero" d="M82.565 108.328s-6.61-1.441-9.44 1.43c-2.83 2.87-19.337 20.34-18.717 23.21.62 2.87 8.645 5.954 15.57 7.145 6.925 1.191-1.1-8.634-1.1-8.634s-5.041-.643-4.246-1.607c.796-.965 6.13-4.967 6.13-4.967l11.803-16.577z"/>
        <path fill="#77D238" fill-rule="nonzero" d="M82.84 107.966a81.488 81.488 0 0 0 13.531 7.135c8.614 3.691 3.858 45.503 1.83 50.24-2.028 4.737-28.65-1.916-32.076-7.523-2.67-4.114 1.212-44.01 16.714-49.852z"/>
        <path fill="#E69352" fill-rule="nonzero" d="M142.826 110.326a11.76 11.76 0 0 1 2.593-4.433c1.627-1.429-.955 2.93-.99 3.492-.035.562-1.603.94-1.603.94z"/>
        <path fill="#E69352" fill-rule="nonzero" d="M141.26 113.137c.31-.295.633-.572.972-.83 0 0 2.234-7.558 9.568-6.62 1.766.232-2.69 3.45-1.895 3.45.795 0-1.954 4.292-4.679 5.121l-3.965-1.121z"/>
        <path fill="#E69352" fill-rule="nonzero" d="M140.582 112.685l3.81 1.164a67.804 67.804 0 0 0-5.583 8.666c-1.15 2.163-2.842 6.653-4.983 10.62a16.35 16.35 0 0 1-5.87-4.27c2.809-3.256 8.437-12.434 12.626-16.18z"/>
        <path fill="#589C28" fill-rule="nonzero" d="M128.193 129.188a16.77 16.77 0 0 0 6.024 4.304c-2.362 4.233-5.09 7.856-8.068 7.481-5.776-.715-22.845-10.753-25.633-10.39-2.788.364-5.966-5.593-4.076-14.752 0 0 5.493 2.744 16.077 9.206 10.585 6.461 12.286 6.203 14.447 5.242a4.348 4.348 0 0 0 1.229-1.091z"/>
        <path fill="#AC78FB" fill-rule="nonzero" d="M128.981 126.855s-3.743 2.38-.455 4.943c3.29 2.564 5.703 4.62 6.508 3.268.805-1.35 1.878-3.002 1.423-3.707-.455-.704-6.321-4.77-7.476-4.504z"/>
        <path stroke="#9B9B9B" stroke-linecap="round" stroke-width=".59" d="M93.522 167.742s0 8.757 4.695 10.224M69.042 162.236s1.393 7.388-.564 9.438"/>
        <g stroke="#FDFF3D" stroke-linecap="round" stroke-width="1.572">
            <path d="M160.301 116.618c1.967-9.105-1.755-20.78-8.46-26.291-6.706-5.511-14.103-2.69-16.291 6.486a21.942 21.942 0 0 0-.55 3.57M160.043 117.216l.141-.598M168.652 174.034c7.243-6.454 13.125-16.883 16.435-30.674M149.87 43.375c-8.228-2.941-17.32-1.43-24.261 4.03M185.087 94.596c-3.233-15.427-9.477-29.462-18-39.326M185.087 143.36a104.868 104.868 0 0 0 2.348-15.73M167.087 155.944c4.491-4.551 8.065-11.191 10.174-19.663M176.913 135.494c4.62-19.283.59-42.314-9.043-58.202"/>
            <path d="M168.285 122.124c3.791-15.59-2.102-35.486-13.168-44.44-11.066-8.954-23.1-3.549-26.88 12.018a39.99 39.99 0 0 0-1.063 7.191M117.783 91.45a61.676 61.676 0 0 1 1.565-10.225"/>
        </g>
    </g>
</svg>
