<?xml version="1.0" encoding="UTF-8" standalone="no"?>
<!-- Created with Inkscape (http://www.inkscape.org/) -->

<svg
   xmlns:dc="http://purl.org/dc/elements/1.1/"
   xmlns:cc="http://creativecommons.org/ns#"
   xmlns:rdf="http://www.w3.org/1999/02/22-rdf-syntax-ns#"
   xmlns:svg="http://www.w3.org/2000/svg"
   xmlns="http://www.w3.org/2000/svg"
   xmlns:sodipodi="http://sodipodi.sourceforge.net/DTD/sodipodi-0.dtd"
   xmlns:inkscape="http://www.inkscape.org/namespaces/inkscape"
   width="100"
   height="140"
   viewBox="0 0 26.458332 37.041668"
   version="1.1"
   id="svg5"
   inkscape:version="0.92.3 (2405546, 2018-03-11)"
   sodipodi:docname="avatares_cabelo2.svg">
  <metadata
     id="metadata298">
    <rdf:RDF>
      <cc:Work
         rdf:about="">
        <dc:format>image/svg+xml</dc:format>
        <dc:type
           rdf:resource="http://purl.org/dc/dcmitype/StillImage" />
        <dc:title />
      </cc:Work>
    </rdf:RDF>
  </metadata>
  <sodipodi:namedview
     id="namedview7"
     pagecolor="#ffffff"
     bordercolor="#666666"
     borderopacity="1.0"
     inkscape:pageshadow="2"
     inkscape:pageopacity="0.0"
     inkscape:pagecheckerboard="0"
     inkscape:document-units="mm"
     showgrid="false"
     inkscape:zoom="1.1149806"
     inkscape:cx="625.07242"
     inkscape:cy="-125.5215"
     inkscape:window-width="1920"
     inkscape:window-height="1017"
     inkscape:window-x="-8"
     inkscape:window-y="-8"
     inkscape:window-maximized="1"
     inkscape:current-layer="layer1"
     inkscape:lockguides="true"
     showguides="true"
     inkscape:guide-bbox="true"
     units="px" />
  <defs
     id="defs2" />
  <g
     inkscape:label="Camada 1"
     inkscape:groupmode="layer"
     id="layer1"
     transform="translate(0,-259.95831)">
    <flowRoot
       xml:space="preserve"
       id="flowRoot4193"
       style="font-style:normal;font-weight:normal;font-size:40px;line-height:1.25;font-family:sans-serif;letter-spacing:0px;word-spacing:0px;fill:#000000;fill-opacity:1;stroke:none"><flowRegion
         id="flowRegion4195"><rect
           id="rect4197"
           width="17859.023"
           height="8113.897"
           x="163.78249"
           y="407.26239" /></flowRegion><flowPara
         id="flowPara4199" /></flowRoot>    <path
       style="fill:#000000;stroke:none;stroke-width:0.19851121px;stroke-linecap:butt;stroke-linejoin:miter;stroke-opacity:1"
       d="m 13.066931,276.85013 c -2.27958,0 -2.22909,-2.26611 -4.3691803,-1.04483 -1.81176,1.03396 -1.53998,5.04622 -1.51971,5.03405 l -0.85484,0.37993 c 0,0 0.18996,-3.51434 0.5699,-4.36915 0.37992,-0.85485 1.42472,-2.1846 1.42472,-2.1846 l -0.47491,-1.13976 0.47491,0.1899 -0.66487,-1.61471 1.23476,0.66489 v -0.75987 h 1.1910703 c 0,0 1.1641,-0.81907 3.17811,-0.75985 3.2294,0.0952 4.36919,2.56451 4.36919,2.56451 0,0 1.32975,0.37993 1.89965,1.32976 0.56989,0.9498 0.75986,6.55373 0.75986,6.55373 l -0.80356,-0.4407 c 0,0 0.33391,-4.04643 -1.38104,-5.37028 -1.45784,-1.12538 -2.87393,0.94516 -5.03406,0.96694 z"
       id="path9159-6"
       sodipodi:nodetypes="csccscccccccscsccsc"
       inkscape:connector-curvature="0" />
  </g>
</svg>
