<?xml version="1.0" encoding="UTF-8" standalone="no"?>
<!-- Created with Inkscape (http://www.inkscape.org/) -->

<svg
   xmlns:dc="http://purl.org/dc/elements/1.1/"
   xmlns:cc="http://creativecommons.org/ns#"
   xmlns:rdf="http://www.w3.org/1999/02/22-rdf-syntax-ns#"
   xmlns:svg="http://www.w3.org/2000/svg"
   xmlns="http://www.w3.org/2000/svg"
   xmlns:sodipodi="http://sodipodi.sourceforge.net/DTD/sodipodi-0.dtd"
   xmlns:inkscape="http://www.inkscape.org/namespaces/inkscape"
   width="100"
   height="140"
   viewBox="0 0 26.458332 37.041668"
   version="1.1"
   id="svg5"
   inkscape:version="0.92.3 (2405546, 2018-03-11)"
   sodipodi:docname="avatares_cabelo9.svg">
  <metadata
     id="metadata298">
    <rdf:RDF>
      <cc:Work
         rdf:about="">
        <dc:format>image/svg+xml</dc:format>
        <dc:type
           rdf:resource="http://purl.org/dc/dcmitype/StillImage" />
        <dc:title />
      </cc:Work>
    </rdf:RDF>
  </metadata>
  <sodipodi:namedview
     id="namedview7"
     pagecolor="#ffffff"
     bordercolor="#666666"
     borderopacity="1.0"
     inkscape:pageshadow="2"
     inkscape:pageopacity="0.0"
     inkscape:pagecheckerboard="0"
     inkscape:document-units="mm"
     showgrid="false"
     inkscape:zoom="0.90184803"
     inkscape:cx="352.44711"
     inkscape:cy="-83.586345"
     inkscape:window-width="1920"
     inkscape:window-height="1017"
     inkscape:window-x="-8"
     inkscape:window-y="-8"
     inkscape:window-maximized="1"
     inkscape:current-layer="layer1"
     inkscape:lockguides="true"
     showguides="true"
     inkscape:guide-bbox="true"
     units="px" />
  <defs
     id="defs2" />
  <g
     inkscape:label="Camada 1"
     inkscape:groupmode="layer"
     id="layer1"
     transform="translate(0,-259.95831)">
    <path
       style="fill:#000000;stroke:none;stroke-width:0.19851121px;stroke-linecap:butt;stroke-linejoin:miter;stroke-opacity:1"
       d="m 20.265195,283.09862 -0.24713,-2.25726 c -0.12029,-1.74032 -1.43974,-2.85783 -2.2455,-5.21344 -1.60589,0.75939 -3.04948,2.0127 -4.27389,2.71627 -1.77892,1.0222 -6.97271,0.92603 -6.98937,2.85453 l -0.19343,1.81109 c 0,0 -0.13273,-0.37977 -0.2035,-2.20811 -0.0936,-3.4048 1.9438,-6.55193 3.34091,-7.8945 0.40588,-0.39007 -0.6001,-0.0317 -0.45809,-1.75485 0.15591,-1.89194 2.06817,-2.41539 3.58347,-2.43235 2.57456,-0.177 3.76299,0.62422 4.44041,1.54818 0.67988,0.92726 -0.0379,2.36551 -0.0379,2.36551 1.78148,2.30167 2.92336,2.45361 3.14843,4.5563 0.48784,5.9355 0.13606,5.90865 0.13606,5.90865 z"
       id="path21287-7"
       sodipodi:nodetypes="cccscccsscscccc"
       inkscape:connector-curvature="0" />
    <flowRoot
       xml:space="preserve"
       id="flowRoot4193"
       style="font-style:normal;font-weight:normal;font-size:40px;line-height:1.25;font-family:sans-serif;letter-spacing:0px;word-spacing:0px;fill:#000000;fill-opacity:1;stroke:none"><flowRegion
         id="flowRegion4195"><rect
           id="rect4197"
           width="17859.023"
           height="8113.897"
           x="163.78249"
           y="407.26239" /></flowRegion><flowPara
         id="flowPara4199" /></flowRoot>  </g>
</svg>
