<?xml version="1.0" encoding="UTF-8" standalone="no"?>
<!-- Created with Inkscape (http://www.inkscape.org/) -->

<svg
   xmlns:dc="http://purl.org/dc/elements/1.1/"
   xmlns:cc="http://creativecommons.org/ns#"
   xmlns:rdf="http://www.w3.org/1999/02/22-rdf-syntax-ns#"
   xmlns:svg="http://www.w3.org/2000/svg"
   xmlns="http://www.w3.org/2000/svg"
   xmlns:sodipodi="http://sodipodi.sourceforge.net/DTD/sodipodi-0.dtd"
   xmlns:inkscape="http://www.inkscape.org/namespaces/inkscape"
   width="100"
   height="140"
   viewBox="0 0 26.458332 37.041668"
   version="1.1"
   id="svg5"
   inkscape:version="0.92.3 (2405546, 2018-03-11)"
   sodipodi:docname="avatares_cabelo3.svg">
  <metadata
     id="metadata298">
    <rdf:RDF>
      <cc:Work
         rdf:about="">
        <dc:format>image/svg+xml</dc:format>
        <dc:type
           rdf:resource="http://purl.org/dc/dcmitype/StillImage" />
        <dc:title />
      </cc:Work>
    </rdf:RDF>
  </metadata>
  <sodipodi:namedview
     id="namedview7"
     pagecolor="#ffffff"
     bordercolor="#666666"
     borderopacity="1.0"
     inkscape:pageshadow="2"
     inkscape:pageopacity="0.0"
     inkscape:pagecheckerboard="0"
     inkscape:document-units="mm"
     showgrid="false"
     inkscape:zoom="0.95783953"
     inkscape:cx="633.14678"
     inkscape:cy="-173.45095"
     inkscape:window-width="1920"
     inkscape:window-height="1017"
     inkscape:window-x="-8"
     inkscape:window-y="-8"
     inkscape:window-maximized="1"
     inkscape:current-layer="layer1"
     inkscape:lockguides="true"
     showguides="true"
     inkscape:guide-bbox="true"
     units="px" />
  <defs
     id="defs2" />
  <g
     inkscape:label="Camada 1"
     inkscape:groupmode="layer"
     id="layer1"
     transform="translate(0,-259.95831)">
    <flowRoot
       xml:space="preserve"
       id="flowRoot4193"
       style="font-style:normal;font-weight:normal;font-size:40px;line-height:1.25;font-family:sans-serif;letter-spacing:0px;word-spacing:0px;fill:#000000;fill-opacity:1;stroke:none"><flowRegion
         id="flowRegion4195"><rect
           id="rect4197"
           width="17859.023"
           height="8113.897"
           x="163.78249"
           y="407.26239" /></flowRegion><flowPara
         id="flowPara4199" /></flowRoot>    <path
       id="path9159-0-4"
       style="fill:#000000;stroke:none;stroke-width:0.19851121px;stroke-linecap:butt;stroke-linejoin:miter;stroke-opacity:1"
       d="m 12.665634,272.33182 c -0.68913,0.004 -1.37667,0.14255 -2.03242,0.45518 h 4.36339 c -0.74912,-0.28768 -1.54107,-0.45973 -2.33097,-0.45518 z m -2.8206497,0.93013 c -0.046,0.034 -0.092,0.069 -0.13765,0.10502 -0.13981,0.11094 -0.2770301,0.23492 -0.4117601,0.36987 h 7.4926398 c -0.24609,-0.16881 -0.50374,-0.32834 -0.77116,-0.47494 z m -0.9735601,0.94992 c -0.11969,0.14863 -0.23682,0.30706 -0.35088,0.47494 h 9.3715198 c -0.14909,-0.16786 -0.30751,-0.32671 -0.47572,-0.47494 z m -0.65059,0.94991 c -0.0896,0.15216 -0.17705,0.31058 -0.26209,0.47493 H 18.591124 c -0.0998,-0.16271 -0.20528,-0.32132 -0.31717,-0.47493 z m -0.49356,0.94988 c -0.0707,0.1538 -0.13915,0.31203 -0.20588,0.47457 h 0.66727 c 0.14808,-0.16831 0.31687,-0.31176 0.50907,-0.42143 0.0323,-0.0188 0.0637,-0.0363 0.095,-0.0532 z m 2.9416098,0 c 0.20131,0.13974 0.39806,0.30979 0.61763,0.47457 h 3.96055 c 0.35711,-0.1716 0.69474,-0.34562 1.02008,-0.47457 z m 7.23869,0 c 0.0644,0.0378 0.12859,0.081 0.1931,0.13051 0.12955,0.0998 0.24721,0.21571 0.35437,0.34394 h 0.63702 c -0.0727,-0.16014 -0.14965,-0.31865 -0.23147,-0.47459 z m -10.5715098,0.94952 c -0.057,0.155 -0.11215,0.31335 -0.16554,0.47497 h 0.46138 c 0.0657,-0.16576 0.14027,-0.32517 0.22449,-0.47497 z m 4.8034398,0 c 0.26248,0.0913 0.56564,0.14819 0.92741,0.14819 0.34779,-0.002 0.67582,-0.0604 0.9883,-0.14819 z m 6.63733,0 c 0.0832,0.15031 0.15758,0.30939 0.22333,0.47497 h 0.46952 c -0.0547,-0.15849 -0.11365,-0.31723 -0.17603,-0.47497 z m -11.7548098,0.94994 c -0.0462,0.15589 -0.0913,0.31368 -0.13416,0.47493 h 0.46525 c 0.0337,-0.15943 0.0723,-0.31852 0.11749,-0.47493 z m 12.1398198,0 c 0.0459,0.15614 0.0861,0.31484 0.12098,0.47493 h 0.47379 c -0.0415,-0.1571 -0.0852,-0.31542 -0.13343,-0.47493 z M 6.7692242,278.961 c -0.0371,0.15615 -0.0731,0.31424 -0.10699,0.47498 h 0.5459 c 0.0155,-0.15452 0.0354,-0.31377 0.0597,-0.47498 z m 12.6027598,0 c 0.0253,0.16013 0.0465,0.3189 0.0636,0.47498 h 0.54009 c -0.0306,-0.15502 -0.065,-0.31369 -0.10204,-0.47498 z m -12.8039798,0.94991 c -0.0291,0.1564 -0.0565,0.31448 -0.0826,0.47458 h 0.66803 c 0.002,-0.14511 0.007,-0.30462 0.0171,-0.47458 z m 12.9094398,0 c 0.0111,0.16552 0.0189,0.32437 0.0236,0.47458 h 0.6347 c -0.0213,-0.15145 -0.046,-0.30996 -0.0737,-0.47458 z m -13.0649198,0.94954 c -0.022,0.15661 -0.0422,0.31514 -0.0612,0.47493 h 0.51876 l 0.30785,-0.13687 c -0.004,0.002 -0.015,-0.12665 -0.0214,-0.33809 z m 13.0947698,0 c -7.9e-4,0.19131 -0.004,0.3507 -0.01,0.47493 h 0.74597 c -0.0125,-0.14185 -0.0272,-0.30038 -0.0469,-0.47493 z m 0.335,0.94988 0.44316,0.2431 c 0,0 -0.001,-0.0905 -0.01,-0.2431 z"
       inkscape:connector-curvature="0" />
  </g>
</svg>
