<?xml version="1.0" encoding="UTF-8" standalone="no"?>
<!-- Created with Inkscape (http://www.inkscape.org/) -->

<svg
   xmlns:dc="http://purl.org/dc/elements/1.1/"
   xmlns:cc="http://creativecommons.org/ns#"
   xmlns:rdf="http://www.w3.org/1999/02/22-rdf-syntax-ns#"
   xmlns:svg="http://www.w3.org/2000/svg"
   xmlns="http://www.w3.org/2000/svg"
   xmlns:sodipodi="http://sodipodi.sourceforge.net/DTD/sodipodi-0.dtd"
   xmlns:inkscape="http://www.inkscape.org/namespaces/inkscape"
   width="100"
   height="140"
   viewBox="0 0 26.458332 37.041668"
   version="1.1"
   id="svg5"
   inkscape:version="0.92.3 (2405546, 2018-03-11)"
   sodipodi:docname="avatares_cabelo7.svg">
  <metadata
     id="metadata298">
    <rdf:RDF>
      <cc:Work
         rdf:about="">
        <dc:format>image/svg+xml</dc:format>
        <dc:type
           rdf:resource="http://purl.org/dc/dcmitype/StillImage" />
        <dc:title />
      </cc:Work>
    </rdf:RDF>
  </metadata>
  <sodipodi:namedview
     id="namedview7"
     pagecolor="#ffffff"
     bordercolor="#666666"
     borderopacity="1.0"
     inkscape:pageshadow="2"
     inkscape:pageopacity="0.0"
     inkscape:pagecheckerboard="0"
     inkscape:document-units="mm"
     showgrid="false"
     inkscape:zoom="1.4576065"
     inkscape:cx="385.7596"
     inkscape:cy="12.31542"
     inkscape:window-width="1920"
     inkscape:window-height="1017"
     inkscape:window-x="-8"
     inkscape:window-y="-8"
     inkscape:window-maximized="1"
     inkscape:current-layer="layer1"
     inkscape:lockguides="true"
     showguides="true"
     inkscape:guide-bbox="true"
     units="px" />
  <defs
     id="defs2" />
  <g
     inkscape:label="Camada 1"
     inkscape:groupmode="layer"
     id="layer1"
     transform="translate(0,-259.95831)">
    <path
       id="path21287-9-4"
       style="fill:#000000;stroke:none;stroke-width:0.19851096px;stroke-linecap:butt;stroke-linejoin:miter;stroke-opacity:1"
       d="m 12.122883,271.42869 c -1.2462,-0.004 -2.8593496,0.83797 -3.6419896,2.01367 -1.33574,2.00658 -2.52946,5.02043 -2.45193,7.84341 0.0385,0.98875 0.40195,7.89873 -0.95382,8.97925 h 4.54219 c -1.26929,-1.12117 -3.31884,-3.63324 -2.14138,-8.5794 0.009,-0.44022 0.91402,-2.88303 0.94998,-3.57405 0.0789,-1.51971 0.40135,-0.14818 0.13785,1.24825 1.7676406,-0.34419 4.0592596,0.11959 4.5089796,-1.44558 0.36881,1.24156 3.07159,1.28163 4.97913,1.42404 -0.51169,-1.60683 -0.27002,-3.00626 -0.0353,-1.38915 0.0968,0.66723 1.45057,3.71227 1.71105,4.47287 0.14983,5.12295 -1.31454,6.70024 -2.61783,7.84302 h 4.92021 c -1.231,-0.96925 -1.61571,-6.42935 -1.65626,-9.1425 0.1105,-2.77923 -0.94199,-6.36644 -3.25241,-8.51497 -0.97402,-0.90581 -3.40133,-1.43946 -4.20963,-1.03467 -0.23376,-0.0973 -0.50115,-0.14323 -0.78875,-0.14419 z"
       sodipodi:nodetypes="ssccccscccsccccscss"
       inkscape:connector-curvature="0" />
    <flowRoot
       xml:space="preserve"
       id="flowRoot4193"
       style="font-style:normal;font-weight:normal;font-size:40px;line-height:1.25;font-family:sans-serif;letter-spacing:0px;word-spacing:0px;fill:#000000;fill-opacity:1;stroke:none"><flowRegion
         id="flowRegion4195"><rect
           id="rect4197"
           width="17859.023"
           height="8113.897"
           x="163.78249"
           y="407.26239" /></flowRegion><flowPara
         id="flowPara4199" /></flowRoot>  </g>
</svg>
