<?xml version="1.0" encoding="UTF-8" standalone="no"?>
<!-- Created with Inkscape (http://www.inkscape.org/) -->

<svg
   xmlns:dc="http://purl.org/dc/elements/1.1/"
   xmlns:cc="http://creativecommons.org/ns#"
   xmlns:rdf="http://www.w3.org/1999/02/22-rdf-syntax-ns#"
   xmlns:svg="http://www.w3.org/2000/svg"
   xmlns="http://www.w3.org/2000/svg"
   xmlns:sodipodi="http://sodipodi.sourceforge.net/DTD/sodipodi-0.dtd"
   xmlns:inkscape="http://www.inkscape.org/namespaces/inkscape"
   width="100"
   height="140"
   viewBox="0 0 26.458332 37.041668"
   version="1.1"
   id="svg5"
   inkscape:version="0.92.3 (2405546, 2018-03-11)"
   sodipodi:docname="avatares_barba3.svg">
  <metadata
     id="metadata298">
    <rdf:RDF>
      <cc:Work
         rdf:about="">
        <dc:format>image/svg+xml</dc:format>
        <dc:type
           rdf:resource="http://purl.org/dc/dcmitype/StillImage" />
        <dc:title />
      </cc:Work>
    </rdf:RDF>
  </metadata>
  <sodipodi:namedview
     id="namedview7"
     pagecolor="#ffffff"
     bordercolor="#666666"
     borderopacity="1.0"
     inkscape:pageshadow="2"
     inkscape:pageopacity="0.0"
     inkscape:pagecheckerboard="0"
     inkscape:document-units="mm"
     showgrid="false"
     inkscape:zoom="0.85816096"
     inkscape:cx="682.8649"
     inkscape:cy="-138.86159"
     inkscape:window-width="1920"
     inkscape:window-height="1017"
     inkscape:window-x="-8"
     inkscape:window-y="-8"
     inkscape:window-maximized="1"
     inkscape:current-layer="layer1"
     inkscape:lockguides="true"
     showguides="true"
     inkscape:guide-bbox="true"
     units="px" />
  <defs
     id="defs2" />
  <g
     inkscape:label="Camada 1"
     inkscape:groupmode="layer"
     id="layer1"
     transform="translate(0,-259.95831)">
    <path
       id="path1370-7"
       style="fill:#000000;stroke:none;stroke-width:0.07055577px;stroke-linecap:butt;stroke-linejoin:miter;stroke-opacity:1"
       d="m 9.8965037,286.69734 c -0.780871,1.09358 -2.144078,1.24767 -2.144078,1.24767 0,0 2.143896,0.95942 4.2055723,0.28767 0.739712,-0.24103 1.150464,-0.75389 1.372911,-1.31238 0.227092,0.55849 0.646052,1.07135 1.401212,1.31238 2.104729,0.67175 4.293583,-0.28767 4.293583,-0.28767 0,0 -1.431347,-0.0961 -2.189052,-1.24767 -0.572961,-0.90662 -2.308324,-1.40564 -3.505743,-1.45046 -1.247324,0.0314 -2.757661,0.43594 -3.4344053,1.45046 z"
       sodipodi:nodetypes="ccscscccc"
       inkscape:connector-curvature="0" />
    <path
       style="fill:#000000;stroke:none;stroke-width:0.19851121px;stroke-linecap:butt;stroke-linejoin:miter;stroke-opacity:1"
       d="m 9.7291387,287.57254 c 0,0 -1.47879,5.71714 3.5053003,5.61455 4.98081,-0.14326 3.67647,-5.20919 3.67647,-5.20919 0,0 -0.0353,1.40149 -1.16471,1.3925 -0.26916,-0.002 -0.51204,0.69476 -1.22127,0.73395 -0.93049,0.0513 -1.08706,-0.48917 -1.08706,-0.48917 -0.18793,0.004 -0.42325,-0.0682 -0.59939,-0.009 0,0 -0.21571,0.48895 -1.07976,0.44397 -0.70695,-0.0367 -0.95244,-0.84275 -0.95244,-0.84275 z"
       id="path2537-3-3-8-7-8"
       sodipodi:nodetypes="cccssssscc"
       inkscape:connector-curvature="0" />
    <flowRoot
       xml:space="preserve"
       id="flowRoot4193"
       style="font-style:normal;font-weight:normal;font-size:40px;line-height:1.25;font-family:sans-serif;letter-spacing:0px;word-spacing:0px;fill:#000000;fill-opacity:1;stroke:none"><flowRegion
         id="flowRegion4195"><rect
           id="rect4197"
           width="17859.023"
           height="8113.897"
           x="163.78249"
           y="407.26239" /></flowRegion><flowPara
         id="flowPara4199" /></flowRoot>  </g>
</svg>
