<?xml version="1.0" encoding="UTF-8" standalone="no"?>
<!-- Created with Inkscape (http://www.inkscape.org/) -->

<svg
   xmlns:dc="http://purl.org/dc/elements/1.1/"
   xmlns:cc="http://creativecommons.org/ns#"
   xmlns:rdf="http://www.w3.org/1999/02/22-rdf-syntax-ns#"
   xmlns:svg="http://www.w3.org/2000/svg"
   xmlns="http://www.w3.org/2000/svg"
   xmlns:sodipodi="http://sodipodi.sourceforge.net/DTD/sodipodi-0.dtd"
   xmlns:inkscape="http://www.inkscape.org/namespaces/inkscape"
   width="100"
   height="140"
   viewBox="0 0 26.458332 37.041668"
   version="1.1"
   id="svg5"
   inkscape:version="0.92.3 (2405546, 2018-03-11)"
   sodipodi:docname="avatares_cabelo8.svg">
  <metadata
     id="metadata298">
    <rdf:RDF>
      <cc:Work
         rdf:about="">
        <dc:format>image/svg+xml</dc:format>
        <dc:type
           rdf:resource="http://purl.org/dc/dcmitype/StillImage" />
        <dc:title />
      </cc:Work>
    </rdf:RDF>
  </metadata>
  <sodipodi:namedview
     id="namedview7"
     pagecolor="#ffffff"
     bordercolor="#666666"
     borderopacity="1.0"
     inkscape:pageshadow="2"
     inkscape:pageopacity="0.0"
     inkscape:pagecheckerboard="0"
     inkscape:document-units="mm"
     showgrid="false"
     inkscape:zoom="0.90184803"
     inkscape:cx="124.45855"
     inkscape:cy="-17.982798"
     inkscape:window-width="1920"
     inkscape:window-height="1017"
     inkscape:window-x="-8"
     inkscape:window-y="-8"
     inkscape:window-maximized="1"
     inkscape:current-layer="layer1"
     inkscape:lockguides="true"
     showguides="true"
     inkscape:guide-bbox="true"
     units="px" />
  <defs
     id="defs2" />
  <g
     inkscape:label="Camada 1"
     inkscape:groupmode="layer"
     id="layer1"
     transform="translate(0,-259.95831)">
    <path
       style="fill:#000000;stroke:none;stroke-width:0.19851121px;stroke-linecap:butt;stroke-linejoin:miter;stroke-opacity:1"
       d="m 20.791428,296.94614 -4.08644,-0.0253 7.5e-4,-5.88168 c 1.17335,-0.78695 3.90196,-3.70972 3.73255,-9.50563 0.006,-3.71568 -6.64559,-3.47525 -7.30352,-5.69013 -0.69731,2.42664 -6.4238395,2.45855 -6.4969995,5.70406 -0.27735,6.14349 2.7474,9.19939 3.7354395,9.60296 l 0.004,5.68078 -3.9326995,0.026 c 0,0 -0.13273,-13.4815 -0.20348,-15.30987 -0.0776,-2.82299 0.96541,-5.68729 2.30116,-7.69393 0.96324,-1.447 3.1849895,-2.38883 4.4316095,-1.86964 0.80831,-0.40479 2.93539,0.12872 3.90941,1.03452 2.31041,2.14857 4.06279,5.73591 3.95234,8.51514 0.0882,5.89104 -0.0442,15.41263 -0.0442,15.41263 z"
       id="path21287-9"
       sodipodi:nodetypes="ccccccccccscsccc"
       inkscape:connector-curvature="0" />
    <flowRoot
       xml:space="preserve"
       id="flowRoot4193"
       style="font-style:normal;font-weight:normal;font-size:40px;line-height:1.25;font-family:sans-serif;letter-spacing:0px;word-spacing:0px;fill:#000000;fill-opacity:1;stroke:none"><flowRegion
         id="flowRegion4195"><rect
           id="rect4197"
           width="17859.023"
           height="8113.897"
           x="163.78249"
           y="407.26239" /></flowRegion><flowPara
         id="flowPara4199" /></flowRoot>  </g>
</svg>
