<?xml version="1.0" encoding="UTF-8" standalone="no"?>
<!-- Created with Inkscape (http://www.inkscape.org/) -->

<svg
   xmlns:dc="http://purl.org/dc/elements/1.1/"
   xmlns:cc="http://creativecommons.org/ns#"
   xmlns:rdf="http://www.w3.org/1999/02/22-rdf-syntax-ns#"
   xmlns:svg="http://www.w3.org/2000/svg"
   xmlns="http://www.w3.org/2000/svg"
   xmlns:sodipodi="http://sodipodi.sourceforge.net/DTD/sodipodi-0.dtd"
   xmlns:inkscape="http://www.inkscape.org/namespaces/inkscape"
   width="100"
   height="140"
   viewBox="0 0 26.458332 37.041668"
   version="1.1"
   id="svg5"
   inkscape:version="0.92.3 (2405546, 2018-03-11)"
   sodipodi:docname="avatares_cabelo6.svg">
  <metadata
     id="metadata298">
    <rdf:RDF>
      <cc:Work
         rdf:about="">
        <dc:format>image/svg+xml</dc:format>
        <dc:type
           rdf:resource="http://purl.org/dc/dcmitype/StillImage" />
        <dc:title />
      </cc:Work>
    </rdf:RDF>
  </metadata>
  <sodipodi:namedview
     id="namedview7"
     pagecolor="#ffffff"
     bordercolor="#666666"
     borderopacity="1.0"
     inkscape:pageshadow="2"
     inkscape:pageopacity="0.0"
     inkscape:pagecheckerboard="0"
     inkscape:document-units="mm"
     showgrid="false"
     inkscape:zoom="1.7015876"
     inkscape:cx="347.70503"
     inkscape:cy="0.57282542"
     inkscape:window-width="1920"
     inkscape:window-height="1017"
     inkscape:window-x="-8"
     inkscape:window-y="-8"
     inkscape:window-maximized="1"
     inkscape:current-layer="layer1"
     inkscape:lockguides="true"
     showguides="true"
     inkscape:guide-bbox="true"
     units="px" />
  <defs
     id="defs2" />
  <g
     inkscape:label="Camada 1"
     inkscape:groupmode="layer"
     id="layer1"
     transform="translate(0,-259.95831)">
    <path
       style="color:#000000;fill:#000000;stroke:none;stroke-width:0.19851121px"
       d="m 21.187498,294.45192 c -0.34519,0.78772 -0.17258,2.01926 -2.0709,1.47579 -0.36612,0.91036 -1.26585,1.27989 -2.41258,0.48405 l 9.7e-4,-5.08768 c 1.17335,-0.78692 3.03355,-2.19037 3.61921,-7.5421 -0.50438,0.19391 -1.33731,-1.03143 -0.95919,-2.44545 -0.7383,-0.0693 -0.23281,-0.55338 -0.32836,-0.83708 -0.88625,-0.21125 -0.97708,-1.13055 -0.74718,-1.90496 -0.79005,-0.55092 -0.38843,-1.93587 -0.38843,-1.93587 -0.30325,0.64542 -1.7737,1.52054 -2.44945,0.76793 -0.48646,1.02812 -1.94752,1.22039 -3.05623,0.75684 0.10084,0.9144 -1.04966,2.03683 -1.92329,1.52324 -0.10501,1.35055 -0.8332067,1.24453 -1.7395067,0.86156 0.0262,0.73659 -0.75052,2.22577 -2.26988,1.24836 -0.27734,6.14353 2.92176,9.21524 3.9098167,9.61879 l 0.004,4.88677 c -1.7216767,0.67647 -2.4797267,0.0211 -2.6759367,-0.93678 -1.00826,0.13578 -1.97157,0.18709 -2.05083,-1.41926 -0.0505,0 -3.06577,-1.39881 -0.71634,-3.25714 -0.94052,-0.81277 -1.07874,-1.71344 -0.0617,-2.62346 -1.70311,-2.17348 -0.66929,-2.47779 -0.004,-2.98027 -1.94345,-3.18021 0.3164,-2.97463 0.57966,-3.27282 -0.56509,-0.0812 -1.93136,-1.65301 -0.25585,-1.84824 -1.47185,-0.91587 -0.5752,-2.54828 0.51018,-2.73331 -0.65548,-1.32856 0.53799,-2.31113 2.61594,-2.19429 -0.84071,-2.49316 0.8293,-1.67481 1.7864667,-1.94155 0.61939,-1.99595 1.93824,-1.81003 2.87007,-0.84614 1.41753,-0.43247 2.63641,-0.77602 2.9894,0.64461 2.22759,-0.34845 2.2178,1.98497 2.19977,2.01803 0.0398,-0.0799 1.30837,-0.74014 1.55664,1.2066 0.58962,0.36751 2.1743,0.70958 0.93558,2.08261 0.7216,0.74689 1.77614,1.15794 1.03829,2.14912 1.09654,0.29181 0.3869,2.57309 0.0987,3.18145 1.03727,0.61791 1.2138,1.95571 0.11766,2.09397 0.88538,0.67887 0.95975,1.03048 0.0363,2.09157 0,0 1.02672,1.72394 0.10598,2.52592 1.47588,1.33031 -0.18499,2.19063 -0.51535,2.1756 0,0 0.46295,0.46207 0.41104,0.9436 0.30288,0.63834 -0.17065,1.22779 -0.75989,1.06999 z"
       id="path21287-2"
       sodipodi:nodetypes="cccccccccccccccccccccccccccccccccccccccc"
       inkscape:connector-curvature="0" />
    <flowRoot
       xml:space="preserve"
       id="flowRoot4193"
       style="font-style:normal;font-weight:normal;font-size:40px;line-height:1.25;font-family:sans-serif;letter-spacing:0px;word-spacing:0px;fill:#000000;fill-opacity:1;stroke:none"><flowRegion
         id="flowRegion4195"><rect
           id="rect4197"
           width="17859.023"
           height="8113.897"
           x="163.78249"
           y="407.26239" /></flowRegion><flowPara
         id="flowPara4199" /></flowRoot>  </g>
</svg>
