<svg height="32" viewBox="0 0 33 32" width="33" xmlns="http://www.w3.org/2000/svg"><g fill="#fff"><path d="m32.7046446 9.00508972c1.2988127 3.47705558-1.9886128 3.78050768-3.98344 9.33747468-1.2304541 3.4201583 1.4541731 12.0685438-9.2097628 11.1834752-9.83741878-.8155276-12.14918111 4.2862612-15.44903542 1.7701373-4.55516611-3.4770555-5.25118057-18.2260931-2.23097494-23.65662174 2.29311909-4.11556942 5.66133196-6.11961782 10.04249446-7.18170025 7.6375159-1.85232234 18.4195257 2.09887719 20.8307187 8.54723481zm-19.9757561 4.99491028c-2.2410682 0-3.7288885 1.799778-3.7288885 4.0479217 0 2.2544588 1.4878203 4.0479217 3.7288885 4.0479217 2.234843 0 3.7164381-1.7934629 3.7164381-4.0479217 0-2.2481437-1.4878203-4.0479217-3.7164381-4.0479217zm6.634428 0c-.7532479 0-1.3633165 1.812408-1.3633165 4.0479217s.6100686 4.0479217 1.3633165 4.0479217 1.3633165-1.812408 1.3633165-4.0479217c-.0062252-2.2355137-.6162938-4.0479217-1.3633165-4.0479217zm-.0310778-1.2845455c.7407976 0 1.3384158-.606241 1.3384158-1.3577272 0-.7451713-.5976182-1.3577273-1.3384158-1.3577273-.7345723 0-1.3321905.606241-1.3321905 1.3577273-.0062252.7514862.591393 1.3577272 1.3321905 1.3577272z"/><path d="m12.5936485 20.2752621c-1.0271563 0-1.5936485-1.0672368-1.5936485-2.1534186s.5664922-2.1218435 1.5936485-2.1218435c1.0209311 0 1.5874233 1.0419767 1.5874233 2.1218435s-.5664922 2.1534186-1.5874233 2.1534186z"/></g></svg>