<svg xmlns="http://www.w3.org/2000/svg" width="37" height="36" viewBox="0 0 37 36">
    <defs>
        <linearGradient id="a" x1="2.052%" x2="107.334%" y1="9.423%" y2="100%">
            <stop offset="0%" stop-color="#00BAF7"/>
            <stop offset="61.814%" stop-color="#00D213"/>
            <stop offset="100%" stop-color="#FF0"/>
        </linearGradient>
    </defs>
    <g fill="none" fill-rule="nonzero">
        <path fill="url(#a)" d="M36.669 10.027C33.965 2.847 21.876-1.553 13.313.51 8.401 1.692 4.624 3.924 2.053 8.506c-3.386 6.047-2.605 22.469 2.502 26.34 3.7 2.801 6.292-2.879 17.321-1.97 11.957.985 8.947-8.645 10.327-12.453 2.236-6.187 5.922-6.525 4.466-10.396z"/>
        <path fill="#FFF" d="M21.848 14.535c.83 0 1.5-.675 1.5-1.512 0-.83-.67-1.512-1.5-1.512-.824 0-1.494.675-1.494 1.512a1.494 1.494 0 0 0 1.494 1.512zm.02 1.118c-.844 0-1.528 2.018-1.528 4.507s.684 4.507 1.528 4.507c.845 0 1.53-2.018 1.53-4.507-.008-2.49-.692-4.507-1.53-4.507zm-6.805-.007c-2.512 0-4.18 2.003-4.18 4.507 0 2.51 1.668 4.507 4.18 4.507 2.506 0 4.167-1.997 4.167-4.507 0-2.504-1.668-4.507-4.167-4.507zm0 6.897c-1.151 0-1.787-1.188-1.787-2.397 0-1.21.636-2.363 1.787-2.363 1.145 0 1.78 1.16 1.78 2.363 0 1.202-.635 2.397-1.78 2.397z"/>
    </g>
</svg>
